<svg width="20" height="51" viewBox="0 0 20 51" fill="none" xmlns="http://www.w3.org/2000/svg">
<path d="M1.30322 7.67531C1.40147 6.80618 1.6282 5.95973 2.01364 5.15106C2.7165 3.68488 3.79724 2.58147 5.26342 1.85594C6.43485 1.28156 7.6743 1.01704 8.9591 0.933906C9.04223 0.926349 9.11781 0.903676 9.20094 0.896118C9.67707 0.896118 10.1532 0.896118 10.6293 0.896118C11.1886 0.971694 11.7554 1.01704 12.3071 1.12285C13.8338 1.40248 15.2093 2.00709 16.3353 3.08783C17.5294 4.23659 18.2172 5.65742 18.4666 7.28987C18.5497 7.8189 18.58 8.36305 18.58 8.89964C18.5875 10.6681 18.5875 12.4442 18.5875 14.2127" stroke="white" stroke-miterlimit="10" stroke-linecap="round" stroke-linejoin="round"/>
<path d="M18.5952 15.5957C18.5952 15.6486 18.5952 15.5504 18.5952 15.5957Z" stroke="white" stroke-miterlimit="10" stroke-linecap="round" stroke-linejoin="round"/>
<path d="M18.5952 16.9864C18.5952 18.377 18.5952 19.76 18.5952 21.1506C18.5952 22.4127 18.3685 23.6219 17.8243 24.7632C17.1215 26.2218 16.0559 27.3252 14.5897 28.0356C12.9194 28.8518 11.1358 29.0559 9.29934 28.9879C7.90873 28.935 6.55592 28.678 5.2938 28.0658C3.57066 27.2269 2.40678 25.8892 1.73416 24.1056C1.37139 23.1383 1.23535 22.1255 1.23535 21.0901C1.23535 17.1753 1.23535 13.2604 1.23535 9.35315" stroke="white" stroke-miterlimit="10" stroke-linecap="round" stroke-linejoin="round"/>
<path d="M8.7702 8.27996C8.7702 8.68051 8.76265 9.08107 8.7702 9.48918C8.78532 10.1769 9.26145 10.6757 9.90385 10.6833C10.5614 10.6908 11.0602 10.192 11.0677 9.48918C11.0753 8.70319 11.0753 7.91719 11.0677 7.1312C11.0602 6.44346 10.5765 5.94465 9.93408 5.9371C9.27657 5.92954 8.78532 6.4359 8.7702 7.1312C8.76265 7.51664 8.7702 7.89452 8.7702 8.27996Z" stroke="white" stroke-miterlimit="10"/>
<path d="M4 37L10 43L16 37" stroke="white" stroke-linecap="round" stroke-linejoin="round"/>
<path d="M4 44L10 50L16 44" stroke="#A5A5A5" stroke-linecap="round" stroke-linejoin="round"/>
</svg>
